<?xml version="1.0" encoding="UTF-8" standalone="no"?>
<!-- Created with Inkscape (http://www.inkscape.org/) -->

<svg
   width="24.381741mm"
   height="90.872765mm"
   viewBox="0 0 92.151462 343.45613"
   version="1.1"
   id="svg1"
   xmlns="http://www.w3.org/2000/svg"
   xmlns:svg="http://www.w3.org/2000/svg">
  <defs
     id="defs1" />
  <g
     id="layer2"
     transform="translate(-154.58958,-34.662502)">
    <rect
       style="fill:#ffffff;stroke-width:0.377953;stroke-dasharray:1.13386, 0.377953"
       id="rect1"
       width="1119.8018"
       height="790.92792"
       x="0"
       y="1.3589827" />
  </g>
  <g
     id="layer1"
     transform="translate(-154.58958,-34.662502)">
    <g
       id="g2"
       transform="matrix(0.59499179,0,0,0.59499179,-225.44467,-176.38707)">
      <path
         id="path2-9"
         style="fill:none;stroke:#484243;stroke-width:2.01987;stroke-dasharray:none;stroke-opacity:1"
         d="m 525.72862,393.91723 c 4.89903,-1.92991 5.93399,2.9828 5.50278,6.2338 -0.69256,5.22145 -4.12875,9.98446 -8.2855,10.13293 M 474.53526,395.0314 c -5.40589,-1.35218 -6.37394,2.86176 -5.64576,5.31688 1.4081,4.74756 7.19015,10.85097 8.22933,10.55407 m -1.24447,-13.80346 c -3.70855,-4.24132 -3.7568,-10.52285 -2.35169,-15.93657 2.73755,-10.54736 11.44782,-18.84098 22.30578,-20.44928 13.03578,-1.93088 24.13836,5.53385 29.20838,17.32952 2.6518,6.16953 3.6086,12.18571 -0.0905,17.6787 m -48.74311,14.33226 c 2.33565,13.68791 14.50543,11.7736 5.38166,28.3044 -9.78092,17.72144 -36.84134,14.25457 -44.86927,32.23787 -6.40712,14.3525 -3.12425,32.58958 -4.52666,47.83631 -2.08195,22.63448 -7.41413,46.01081 -8.08695,68.63491 -0.51626,17.35952 3.83917,33.82335 4.12064,50.95622 0.20803,12.6624 -5.31057,25.01244 -3.19025,37.43721 1.31866,7.72717 4.4732,15.06555 10.48055,19.75855 5.8888,-9.28328 -0.51882,-17.76438 1.61966,-28.07793 6.29639,-30.36649 9.51652,-63.49803 11.9329,-94.63297 0.95459,-12.29986 2.6776,-32.66195 7.24589,-41.59691 2.57183,7.92811 3.42522,23.50617 3.09141,34.31744 -0.7476,24.21328 -9.36905,49.54267 -12.13269,73.83453 -4.29851,37.78288 10.22543,73.51262 15.87112,110.23181 3.05553,19.87298 -0.4435,39.38632 0.51141,59.2756 0.85684,17.84671 6.41847,35.5968 9.92139,53.03604 3.33933,16.62499 5.12926,33.09325 1.78977,49.9163 -1.11065,5.59511 -2.77893,12.94115 3.90292,15.76046 6.53052,2.75537 15.50892,0.0275 16.87,-7.44526 2.35625,-12.93698 -0.93143,-28.49492 -1.31997,-41.5927 -0.50492,-17.02103 1.77972,-33.97445 2.05163,-50.95623 0.39549,-24.7005 2.16188,-50.17976 0.97813,-74.87444 -1.22561,-25.56805 0.0615,-50.3524 0.0618,-75.91436 1e-4,-8.5308 0.41473,-18.09967 1.51722,-25.99807 0.67535,-4.83824 0.56263,-9.362 0.56263,-14.55892 m 23.87459,-226.45763 c -2.45251,11.41399 -13.60606,13.31458 -5.88992,28.8723 6.9659,14.04505 36.65985,14.59074 44.86647,32.2384 6.56131,14.10953 3.56379,31.74627 4.94806,46.79573 2.10926,22.93146 7.40601,46.77783 8.08695,69.67483 0.51561,17.33752 -3.99077,33.81852 -4.12801,50.95622 -0.0885,11.04397 4.56154,22.62232 3.63306,33.27753 -0.76799,8.81334 -4.7222,18.4545 -10.91599,23.91823 -6.45775,-9.0358 0.52866,-20.17819 -2.76592,-31.19769 -3.31404,-11.0847 -2.58289,-22.85517 -3.67702,-34.31745 -2.02068,-21.16879 -5.37003,-42.32352 -7.93998,-63.4353 -1.35299,-11.1145 -3.15186,-28.33174 -6.41553,-36.3973 -2.48244,7.65255 -3.13222,21.83894 -3.11965,32.23761 0.0257,21.1405 7.28582,43.43684 10.25656,64.47521 6.13814,43.4699 -8.38081,80.23693 -14.1065,122.71089 -2.63712,19.56241 0.56628,38.7 -0.37167,58.23569 -0.85205,17.74691 -6.14621,35.75584 -9.97901,53.03605 -3.23759,14.59663 -4.811,29.80516 -2.88441,44.71667 0.82339,6.37301 4.58398,15.35249 -0.90338,20.36975 -5.58837,5.10959 -16.83358,2.58218 -18.71299,-4.78259 -3.74982,-14.69433 1.3439,-35.64865 1.3439,-50.94448 0,-20.47484 -3.27273,-40.91359 -3.11629,-61.35549 0.23437,-30.62618 3.47895,-62.00426 2.01457,-92.55312 -0.71404,-14.89595 -2.01693,-29.783 -2.01805,-44.71668 -4.6e-4,-6.26604 -0.97763,-15.18919 -2.68035,-20.75419 5.2037,6.29219 25.9553,7.04064 38.03773,2.03557 M 453.19162,503.87322 c 0.86898,9.89387 3.07107,18.57872 3.11977,27.03799 m 90.47328,-24.95815 c -2.4007,8.6416 -3.07603,16.32052 -3.11977,23.91823 m -80.30086,122.89854 c 10.89531,6.04169 26.43539,4.64529 36.13181,-1.97302" />
      <path
         style="display:inline;fill:none;stroke:#484243;stroke-width:2.01987;stroke-dasharray:none"
         d="m 708.36857,356.76549 c 21.09438,-5.56801 32.2531,11.79669 35.54175,29.46395 0.6976,3.74788 3.3108,4.10228 3.0364,7.94371 -0.29606,4.14439 -3.67733,9.6689 -5.89675,12.85474 -6.06389,8.70428 -9.61001,19.85499 -21.24233,23.03584 -14.65935,4.00859 -25.00317,-12.74032 -28.85719,-24.07575 -1.07151,-3.15151 -1.57887,-6.04469 -2.04851,-9.35931 -2.20429,-15.55854 1.77203,-35.19261 19.46663,-39.86318 m -17.92994,48.63974 c -2.62531,-3.85795 -9.48379,-11.72692 -2.41144,-16.10964 m 55.772,-3.72082 c 1.05106,6.05703 -1.00633,16.14149 -3.48295,22.91768 m -10.21812,15.68205 c 1.2761,10.09068 2.89101,15.1043 10.51958,20.38491 12.23712,8.47067 32.51919,6.82042 38.86921,22.784 6.06795,15.25458 3.79603,33.86672 4.91529,49.9163 1.6815,24.1127 7.98328,48.72762 8.18579,72.7946 0.1293,15.37958 -4.92825,30.42793 -5.17457,45.75661 -0.22559,14.04809 6.25704,26.63697 2.00652,40.55698 -1.04265,3.41446 -3.97954,13.35378 -9.0808,11.89466 -2.74845,-0.78617 -3.85987,-4.15267 -3.59615,-6.69599 1.18595,-11.43477 0.90814,-18.57946 -1.03131,-30.15682 -4.89392,-29.21336 -5.82514,-59.89083 -10.00483,-89.43335 -1.51455,-10.7051 -3.22764,-26.52191 -6.38208,-34.31745 -2.51218,7.74403 -3.54773,20.99461 -3.05805,31.19767 1.02061,21.26145 7.70481,43.30713 10.7797,64.47522 6.35891,43.77466 -10.02801,81.00494 -14.807,123.75082 -2.29065,20.48984 1.89943,40.96032 -0.51485,61.35544 -3.03194,25.61203 -13.93186,50.96979 -13.17004,76.95423 0.17216,5.87301 0.32671,13.34002 2.80692,18.71862 2.29528,4.97753 8.27782,10.87778 8.46767,16.51516 0.25103,7.45038 -19.13972,11.96102 -24.62567,9.74594 -4.81267,-1.94322 -7.12442,-12.26417 -7.02747,-16.90175 0.37013,-17.71739 2.67156,-35.23861 2.67156,-53.03603 0,-18.42648 -2.99619,-36.76603 -2.99619,-55.11594 0,-8.63624 2.0241,-17.36234 1.86633,-25.99806 -0.17054,-9.33151 -2.34353,-18.73233 -1.92724,-28.07793 1.24128,-27.87049 3.7336,-56.64648 1.16609,-84.55979 -0.66922,-7.27476 -1.00501,-15.52997 -2.68007,-21.39813 -1.91136,5.55426 -2.67658,16.55946 -3.28337,21.63146 -1.64007,13.70948 -0.44806,22.68264 -0.46481,36.49002 -0.0643,53.04914 -1.04,105.99656 -1.04,159.10819 0,16.33347 2.07765,32.69408 2.05807,48.8763 -0.009,5.38086 -1.21708,14.31145 -5.69056,17.96843 -5.02861,4.11064 -25.2002,-0.99252 -26.34274,-7.78786 -0.83468,-4.96429 5.40783,-11.27553 7.65809,-15.38011 3.54991,-6.47525 3.87672,-13.5641 4.42344,-20.79852 1.52807,-20.22305 -7.24738,-42.68508 -11.02355,-62.39531 -4.02717,-21.02058 0.44192,-40.56963 -1.44484,-61.35544 -3.1527,-34.73234 -16.78125,-68.09722 -18.4525,-102.95237 -1.65432,-34.50253 10.39179,-66.98479 13.24951,-100.87251 0.57314,-6.79647 -0.67744,-15.16346 -1.5691,-21.83837 -0.38635,-2.89226 -0.93477,-5.412 -1.2995,-8.31938 -0.36199,-2.88563 -0.18783,-5.43841 -0.50297,-8.31939 -0.65212,-5.96169 -1.53737,-12.64575 -1.62034,-18.71861 m 30.80377,-76.16648 c -4.20778,31.53747 -38.71992,19.29078 -49.10874,41.84915 -6.43054,13.9633 -3.40836,31.91076 -4.77756,46.79641 -2.19925,23.90984 -7.71184,48.89175 -8.10432,72.79459 -0.27859,16.96697 4.16106,33.10139 5.05865,49.9163 0.7472,13.99769 -6.74308,26.40673 -2.50821,40.55698 1.01953,3.40663 3.47749,11.83843 7.9456,11.89466 2.91247,0.0366 4.50521,-3.12621 4.54391,-5.66032 0.17057,-11.16769 -0.85153,-19.87624 1.21633,-31.19249 5.24209,-28.68724 6.26972,-59.29927 9.90775,-88.39343 1.33204,-10.65255 3.51809,-26.4762 6.06274,-34.31746 m 89.43338,-28.07791 c -0.91117,10.44463 -2.07868,17.58548 -2.07982,27.038 m -115.43148,135.18996 4.15969,13.51899 2.07985,-6.23953 m 137.26981,-7.27946 -3.11971,13.51899 -3.11983,-6.23953"
         id="path1-4" />
      <path
         style="display:inline;fill:none;stroke:#484243;stroke-width:2.01987;stroke-dasharray:none"
         d="m 896.90629,360.08225 c 4.65934,-0.0485 9.32502,0.69153 13.51899,2.78895 3.42083,1.71076 6.54112,4.07909 9.11535,6.90727 20.43218,22.44802 -9.79629,36.64973 -6.55604,58.17029 3.38467,22.47968 18.07551,40.92906 18.23556,64.47522 0.16278,23.95189 -9.63849,47.72213 -11.3162,71.75467 -1.56573,22.42823 12.23617,39.87489 12.23588,61.35545 -9e-5,12.03826 -8.89161,20.89693 -10.12429,32.23761 -3.9678,36.50618 -2.62881,76.74534 -0.0322,113.35159 1.06923,15.07056 6.6824,29.57051 7.13188,44.71668 0.64037,21.57876 -4.51187,42.94012 -5.14325,64.47522 -0.3425,11.6849 7.26904,29.8391 1.62295,40.47994 -3.23937,6.10504 -10.33305,5.27588 -16.21007,5.27672 -14.02616,0 -27.49615,3.74865 -41.59694,3.08057 -3.58774,-0.16997 -17.41698,-3.3001 -15.66822,-8.98564 0.96707,-3.14383 7.82995,-3.47887 10.46869,-4.36526 9.86105,-3.3124 20.54454,-5.90488 27.92671,-13.71326 17.66887,-18.68902 7.33015,-55.35534 4.16843,-77.92891 -3.76605,-26.88779 -7.55839,-53.51928 -13.04623,-80.07406 -4.32998,-20.95174 -10.64604,-41.06324 -13.3962,-62.39536 -3.92259,-30.42597 -2.16664,-61.93146 -3.63466,-92.55313 -1.39528,-29.10271 -5.54006,-60.52273 -0.32879,-89.43337 3.29575,-18.28313 15.86846,-30.80562 21.227,-47.83645 1.58294,-5.03103 0.48457,-17.73289 -5.53609,-19.84828 -5.4691,-1.92159 -10.15237,1.45199 -13.58972,-5.15335 -2.17364,-4.17682 -7.39645,-16.414 -7.44895,-20.78316 -0.0558,-4.66676 3.57942,-9.11391 4.88115,-13.49081 5.52019,-18.55999 10.47484,-32.27372 33.09475,-32.50914 m 6.23973,33.5491 c 11.26667,-0.44322 5.42324,12.92383 -3.11982,14.55892 m -9.35926,82.1539 c 0.009,51.88224 5.13626,104.07633 5.19944,155.98843 0.0142,11.52194 -2.13268,25.17729 0.33267,36.39729 0.67962,3.09308 3.09504,11.22148 7.7085,9.81481 4.6846,-1.42837 2.38827,-9.4836 2.90141,-12.93457 0.90626,-6.09459 4.30038,-11.51998 4.91789,-17.67869 0.61738,-6.1576 -1.79041,-12.5608 -2.22202,-18.71861 -1.37011,-19.54804 4.11502,-38.91155 5.9159,-58.23569 2.68376,-28.79756 1.7024,-58.08721 9.56366,-86.31359"
         id="path1-6" />
      <path
         style="display:inline;fill:none;stroke:#484243;stroke-width:2.01987;stroke-dasharray:none"
         d="m 1038.6236,358.83671 c -4.6593,-0.0485 -9.325,0.69153 -13.5189,2.78895 -3.4208,1.71075 -6.5411,4.07909 -9.1153,6.90727 -20.43222,22.44802 9.7963,36.64971 6.556,58.17029 -3.3847,22.47967 -18.0755,40.92906 -18.2356,64.47522 -0.1627,23.95189 9.6385,47.72213 11.3163,71.75467 1.5657,22.42823 -12.2362,39.87489 -12.236,61.35545 1e-4,12.03826 8.8917,20.89693 10.1243,32.23761 3.9679,36.50618 2.6288,76.74534 0.032,113.35159 -1.0692,15.07056 -6.6824,29.57051 -7.1319,44.71668 -0.6403,21.57877 4.5119,42.94012 5.1433,64.47521 0.3425,11.68491 -7.2691,29.83911 -1.623,40.47995 3.2394,6.10504 10.333,5.27587 16.21,5.27672 14.0263,0 27.4962,3.74865 41.597,3.08057 3.5878,-0.16998 17.417,-3.30011 15.6683,-8.98564 -0.9671,-3.14385 -7.83,-3.47887 -10.4688,-4.36526 -9.861,-3.31241 -20.5445,-5.90488 -27.9266,-13.71327 -17.6689,-18.68901 -7.3302,-55.35537 -4.1685,-77.9289 3.766,-26.88779 7.5584,-53.51928 13.0462,-80.07406 4.33,-20.95174 10.646,-41.06324 13.3962,-62.39537 3.9226,-30.42596 2.1667,-61.93146 3.6347,-92.55313 1.3953,-29.1027 5.5401,-60.52272 0.3288,-89.43336 -3.2958,-18.28313 -15.8685,-30.80563 -21.2271,-47.83646 -1.5828,-5.03102 -0.4845,-17.73288 5.5361,-19.84827 5.4692,-1.92159 10.1525,1.45198 13.5898,-5.15335 2.1737,-4.17682 7.3964,-16.41401 7.449,-20.78316 0.056,-4.66677 -3.5795,-9.11391 -4.8812,-13.49081 -5.5202,-18.55999 -10.4749,-32.27373 -33.0948,-32.50914 m -6.2397,33.5491 c -11.2666,-0.44322 -5.4232,12.92383 3.1198,14.55892 m 9.3593,82.1539 c -0.01,51.88224 -5.1363,104.07633 -5.1995,155.98843 -0.014,11.52194 2.1328,25.17729 -0.3327,36.39729 -0.6795,3.09308 -3.095,11.22148 -7.7085,9.81481 -4.6846,-1.42837 -2.3882,-9.48361 -2.9013,-12.93457 -0.9063,-6.09461 -4.3004,-11.51999 -4.9179,-17.6787 -0.6174,-6.15759 1.7904,-12.56079 2.222,-18.71861 1.3701,-19.54803 -4.115,-38.91154 -5.9158,-58.23568 -2.6838,-28.79756 -1.7025,-58.08721 -9.5637,-86.31359"
         id="path1-6-0" />
    </g>
  </g>
</svg>
